<svg version="1.0" xmlns="http://www.w3.org/2000/svg" width="346.667" height="346.667" viewBox="0 0 260 260"><path d="M163.3 80c-4.6 1-8.3 3.7-8.3 5.9 0 5.6-14.4 37.2-17.8 39-2.9 1.6-7.4 1.4-9.9-.4-1.2-.9-5.6-7.3-9.8-14.3-12.9-21.3-18.7-27.5-27.2-28.7-5-.8-10.2 1.9-12.6 6.5-1.9 3.7-1.9 7.1.2 22.5 1.6 12.1 3.4 50.5 2.6 56.8-.7 5.6-.7 5.6 2.6 7.7 2.8 1.7 4.5 2 9.2 1.7 3.2-.3 6.9-1.3 8.4-2.2l2.6-1.7-.6-17.7c-.4-9.7-1-21-1.3-25.1l-.6-7.5 3.8 5.5c2 3 5.9 8.2 8.6 11.4 6 7.2 9.8 14.5 9.8 18.5 0 3.7 2.4 4.6 10.3 3.9 7.4-.6 13-3.5 13.9-7.3.7-3.3 4.9-14.9 7.5-20.8 1.1-2.4 2.2-3.7 3.2-3.5 1.4.3 1.7 3.1 2.1 19.3.4 11.5 1.1 20.1 1.8 21.9.9 2.1 1 3.2.1 4.2-2.4 2.9-.3 4.4 6.1 4.4 7.2 0 12.2-1.9 14.5-5.4 1.6-2.5 1.6-3 .1-8.4-1.2-4.4-1.6-9.9-1.5-22.9.1-9.4-.2-17.6-.6-18.3-.4-.7-1.1-9.6-1.6-19.9-1-23.1-1.2-24.4-2.4-25.3-1.3-1-9-.8-13.2.2z"/></svg>